# MagicaVoxel @ Ephtracy

# group
g coin

# material
mtllib coin.mtl
usemtl palette

# normals
vn -1 0 0
vn 1 0 0
vn 0 0 1
vn 0 0 -1
vn 0 -1 0
vn 0 1 0

# texcoords
vt 0.970703 0.5
vt 0.974609 0.5
vt 0.978516 0.5
vt 0.982422 0.5

# verts
v -4 2 -0
v -4 2 -1
v -4 7 -0
v -4 7 -1
v -3 1 -0
v -3 1 -1
v -3 2 1
v -3 2 -0
v -3 2 -1
v -3 2 -2
v -3 7 1
v -3 7 -0
v -3 7 -1
v -3 7 -2
v -3 8 -0
v -3 8 -1
v -2 0 -0
v -2 0 -1
v -2 1 1
v -2 1 -0
v -2 1 -1
v -2 1 -2
v -2 2 1
v -2 2 -0
v -2 2 -1
v -2 2 -2
v -2 7 1
v -2 7 -0
v -2 7 -1
v -2 7 -2
v -2 8 1
v -2 8 -0
v -2 8 -1
v -2 8 -2
v -2 9 -0
v -2 9 -1
v 3 0 -0
v 3 0 -1
v 3 1 1
v 3 1 -0
v 3 1 -1
v 3 1 -2
v 3 2 1
v 3 2 -0
v 3 2 -1
v 3 2 -2
v 3 7 1
v 3 7 -0
v 3 7 -1
v 3 7 -2
v 3 8 1
v 3 8 -0
v 3 8 -1
v 3 8 -2
v 3 9 -0
v 3 9 -1
v 4 1 -0
v 4 1 -1
v 4 2 1
v 4 2 -0
v 4 2 -1
v 4 2 -2
v 4 7 1
v 4 7 -0
v 4 7 -1
v 4 7 -2
v 4 8 -0
v 4 8 -1
v 5 2 -0
v 5 2 -1
v 5 7 -0
v 5 7 -1
v -3 2 1
v -3 7 1
v -2 1 1
v -2 2 1
v -2 5 1
v -2 6 1
v -2 7 1
v -2 8 1
v -1 5 1
v -1 6 1
v -1 7 1
v 0 6 1
v 0 7 1
v 3 1 1
v 3 2 1
v 3 7 1
v 3 8 1
v 4 2 1
v 4 7 1
v -4 2 -0
v -4 7 -0
v -3 1 -0
v -3 2 -0
v -3 7 -0
v -3 8 -0
v -2 0 -0
v -2 1 -0
v -2 2 -0
v -2 7 -0
v -2 8 -0
v -2 9 -0
v 3 0 -0
v 3 1 -0
v 3 2 -0
v 3 7 -0
v 3 8 -0
v 3 9 -0
v 4 1 -0
v 4 2 -0
v 4 7 -0
v 4 8 -0
v 5 2 -0
v 5 7 -0
v -4 2 -1
v -4 7 -1
v -3 1 -1
v -3 2 -1
v -3 7 -1
v -3 8 -1
v -2 0 -1
v -2 1 -1
v -2 2 -1
v -2 7 -1
v -2 8 -1
v -2 9 -1
v 3 0 -1
v 3 1 -1
v 3 2 -1
v 3 7 -1
v 3 8 -1
v 3 9 -1
v 4 1 -1
v 4 2 -1
v 4 7 -1
v 4 8 -1
v 5 2 -1
v 5 7 -1
v -3 2 -2
v -3 7 -2
v -2 1 -2
v -2 2 -2
v -2 7 -2
v -2 8 -2
v 1 6 -2
v 1 7 -2
v 2 5 -2
v 2 6 -2
v 2 7 -2
v 3 1 -2
v 3 2 -2
v 3 5 -2
v 3 6 -2
v 3 7 -2
v 3 8 -2
v 4 2 -2
v 4 7 -2
v -2 0 -0
v 3 0 -0
v -2 0 -1
v 3 0 -1
v -2 1 1
v 3 1 1
v -3 1 -0
v -2 1 -0
v 3 1 -0
v 4 1 -0
v -3 1 -1
v -2 1 -1
v 3 1 -1
v 4 1 -1
v -2 1 -2
v 3 1 -2
v -3 2 1
v -2 2 1
v 3 2 1
v 4 2 1
v -4 2 -0
v -3 2 -0
v -2 2 -0
v 3 2 -0
v 4 2 -0
v 5 2 -0
v -4 2 -1
v -3 2 -1
v -2 2 -1
v 3 2 -1
v 4 2 -1
v 5 2 -1
v -3 2 -2
v -2 2 -2
v 3 2 -2
v 4 2 -2
v -3 7 1
v -2 7 1
v 3 7 1
v 4 7 1
v -4 7 -0
v -3 7 -0
v -2 7 -0
v 3 7 -0
v 4 7 -0
v 5 7 -0
v -4 7 -1
v -3 7 -1
v -2 7 -1
v 3 7 -1
v 4 7 -1
v 5 7 -1
v -3 7 -2
v -2 7 -2
v 3 7 -2
v 4 7 -2
v -2 8 1
v 3 8 1
v -3 8 -0
v -2 8 -0
v 3 8 -0
v 4 8 -0
v -3 8 -1
v -2 8 -1
v 3 8 -1
v 4 8 -1
v -2 8 -2
v 3 8 -2
v -2 9 -0
v 3 9 -0
v -2 9 -1
v 3 9 -1

# faces
f 3/1/1 2/1/1 1/1/1
f 4/1/1 2/1/1 3/1/1
f 8/1/1 6/1/1 5/1/1
f 9/1/1 6/1/1 8/1/1
f 11/2/1 8/2/1 7/2/1
f 12/2/1 8/2/1 11/2/1
f 13/2/1 10/2/1 9/2/1
f 14/2/1 10/2/1 13/2/1
f 15/1/1 13/1/1 12/1/1
f 16/1/1 13/1/1 15/1/1
f 20/3/1 18/3/1 17/3/1
f 21/3/1 18/3/1 20/3/1
f 23/2/1 20/2/1 19/2/1
f 24/2/1 20/2/1 23/2/1
f 25/2/1 22/2/1 21/2/1
f 26/2/1 22/2/1 25/2/1
f 31/2/1 28/2/1 27/2/1
f 32/2/1 28/2/1 31/2/1
f 33/2/1 30/2/1 29/2/1
f 34/2/1 30/2/1 33/2/1
f 35/1/1 33/1/1 32/1/1
f 36/1/1 33/1/1 35/1/1
f 37/3/2 38/3/2 40/3/2
f 40/3/2 38/3/2 41/3/2
f 39/2/2 40/2/2 43/2/2
f 43/2/2 40/2/2 44/2/2
f 41/2/2 42/2/2 45/2/2
f 45/2/2 42/2/2 46/2/2
f 47/2/2 48/2/2 51/2/2
f 51/2/2 48/2/2 52/2/2
f 49/2/2 50/2/2 53/2/2
f 53/2/2 50/2/2 54/2/2
f 52/1/2 53/1/2 55/1/2
f 55/1/2 53/1/2 56/1/2
f 57/3/2 58/3/2 60/3/2
f 60/3/2 58/3/2 61/3/2
f 59/2/2 60/2/2 63/2/2
f 63/2/2 60/2/2 64/2/2
f 61/2/2 62/2/2 65/2/2
f 65/2/2 62/2/2 66/2/2
f 64/3/2 65/3/2 67/3/2
f 67/3/2 65/3/2 68/3/2
f 69/3/2 70/3/2 71/3/2
f 71/3/2 70/3/2 72/3/2
f 76/2/3 74/2/3 73/2/3
f 77/2/3 74/2/3 76/2/3
f 78/2/3 74/2/3 77/2/3
f 79/2/3 74/2/3 78/2/3
f 81/2/3 76/2/3 75/2/3
f 81/2/3 77/2/3 76/2/3
f 81/4/3 78/4/3 77/4/3
f 82/2/3 80/2/3 79/2/3
f 82/4/3 78/4/3 81/4/3
f 82/2/3 79/2/3 78/2/3
f 83/2/3 80/2/3 82/2/3
f 84/2/3 82/2/3 81/2/3
f 84/4/3 83/4/3 82/4/3
f 85/2/3 80/2/3 83/2/3
f 85/4/3 83/4/3 84/4/3
f 86/2/3 81/2/3 75/2/3
f 86/2/3 84/2/3 81/2/3
f 86/2/3 85/2/3 84/2/3
f 87/2/3 85/2/3 86/2/3
f 88/2/3 80/2/3 85/2/3
f 88/2/3 85/2/3 87/2/3
f 89/2/3 80/2/3 88/2/3
f 90/2/3 88/2/3 87/2/3
f 91/2/3 88/2/3 90/2/3
f 95/1/3 93/1/3 92/1/3
f 96/1/3 93/1/3 95/1/3
f 99/1/3 95/1/3 94/1/3
f 100/1/3 95/1/3 99/1/3
f 101/1/3 97/1/3 96/1/3
f 102/1/3 97/1/3 101/1/3
f 104/3/3 99/3/3 98/3/3
f 105/3/3 99/3/3 104/3/3
f 108/1/3 103/1/3 102/1/3
f 109/1/3 103/1/3 108/1/3
f 110/3/3 106/3/3 105/3/3
f 111/3/3 106/3/3 110/3/3
f 112/3/3 108/3/3 107/3/3
f 113/3/3 108/3/3 112/3/3
f 114/3/3 112/3/3 111/3/3
f 115/3/3 112/3/3 114/3/3
f 116/1/4 117/1/4 119/1/4
f 119/1/4 117/1/4 120/1/4
f 118/1/4 119/1/4 123/1/4
f 123/1/4 119/1/4 124/1/4
f 120/1/4 121/1/4 125/1/4
f 125/1/4 121/1/4 126/1/4
f 122/3/4 123/3/4 128/3/4
f 128/3/4 123/3/4 129/3/4
f 126/1/4 127/1/4 132/1/4
f 132/1/4 127/1/4 133/1/4
f 129/3/4 130/3/4 134/3/4
f 134/3/4 130/3/4 135/3/4
f 131/3/4 132/3/4 136/3/4
f 136/3/4 132/3/4 137/3/4
f 135/3/4 136/3/4 138/3/4
f 138/3/4 136/3/4 139/3/4
f 140/2/4 141/2/4 143/2/4
f 143/2/4 141/2/4 144/2/4
f 142/2/4 143/2/4 146/2/4
f 144/2/4 145/2/4 146/2/4
f 143/2/4 144/2/4 146/2/4
f 146/2/4 145/2/4 147/2/4
f 142/2/4 146/2/4 148/2/4
f 146/4/4 147/4/4 149/4/4
f 148/2/4 146/2/4 149/2/4
f 147/2/4 145/2/4 150/2/4
f 149/4/4 147/4/4 150/4/4
f 142/2/4 148/2/4 151/2/4
f 151/2/4 148/2/4 152/2/4
f 148/4/4 149/4/4 153/4/4
f 152/2/4 148/2/4 153/2/4
f 149/2/4 150/2/4 154/2/4
f 153/4/4 149/4/4 154/4/4
f 150/2/4 145/2/4 155/2/4
f 154/2/4 150/2/4 155/2/4
f 155/2/4 145/2/4 156/2/4
f 153/2/4 154/2/4 157/2/4
f 154/2/4 155/2/4 157/2/4
f 152/2/4 153/2/4 157/2/4
f 157/2/4 155/2/4 158/2/4
f 161/3/5 160/3/5 159/3/5
f 162/3/5 160/3/5 161/3/5
f 166/2/5 164/2/5 163/2/5
f 167/2/5 164/2/5 166/2/5
f 169/1/5 166/1/5 165/1/5
f 170/1/5 166/1/5 169/1/5
f 171/3/5 168/3/5 167/3/5
f 172/3/5 168/3/5 171/3/5
f 173/2/5 171/2/5 170/2/5
f 174/2/5 171/2/5 173/2/5
f 180/2/5 176/2/5 175/2/5
f 181/2/5 176/2/5 180/2/5
f 182/2/5 178/2/5 177/2/5
f 183/2/5 178/2/5 182/2/5
f 185/1/5 180/1/5 179/1/5
f 186/1/5 180/1/5 185/1/5
f 189/3/5 184/3/5 183/3/5
f 190/3/5 184/3/5 189/3/5
f 191/2/5 187/2/5 186/2/5
f 192/2/5 187/2/5 191/2/5
f 193/2/5 189/2/5 188/2/5
f 194/2/5 189/2/5 193/2/5
f 195/2/6 196/2/6 200/2/6
f 200/2/6 196/2/6 201/2/6
f 197/2/6 198/2/6 202/2/6
f 202/2/6 198/2/6 203/2/6
f 199/1/6 200/1/6 205/1/6
f 205/1/6 200/1/6 206/1/6
f 203/3/6 204/3/6 209/3/6
f 209/3/6 204/3/6 210/3/6
f 206/2/6 207/2/6 211/2/6
f 211/2/6 207/2/6 212/2/6
f 208/2/6 209/2/6 213/2/6
f 213/2/6 209/2/6 214/2/6
f 215/2/6 216/2/6 218/2/6
f 218/2/6 216/2/6 219/2/6
f 217/1/6 218/1/6 221/1/6
f 221/1/6 218/1/6 222/1/6
f 219/3/6 220/3/6 223/3/6
f 223/3/6 220/3/6 224/3/6
f 222/2/6 223/2/6 225/2/6
f 225/2/6 223/2/6 226/2/6
f 227/1/6 228/1/6 229/1/6
f 229/1/6 228/1/6 230/1/6
