# MagicaVoxel @ Ephtracy

# group
g untitled

# material
mtllib untitled.mtl
usemtl palette

# normals
vn -1 0 0
vn 1 0 0
vn 0 0 1
vn 0 0 -1
vn 0 -1 0
vn 0 1 0

# texcoords
vt 0.939453 0.5
vt 0.970703 0.5
vt 0.974609 0.5
vt 0.978516 0.5

# verts
v -6 2 -0
v -6 2 -1
v -6 3 1
v -6 3 -0
v -6 3 -1
v -6 3 -2
v -6 4 1
v -6 4 -2
v -6 6 1
v -6 6 -0
v -6 6 -1
v -6 6 -2
v -6 7 -0
v -6 7 -1
v -5 1 -0
v -5 1 -1
v -5 2 1
v -5 2 -0
v -5 2 -1
v -5 2 -2
v -5 3 2
v -5 3 1
v -5 3 -0
v -5 3 -1
v -5 3 -2
v -5 3 -3
v -5 4 1
v -5 4 -2
v -5 6 2
v -5 6 1
v -5 6 -0
v -5 6 -1
v -5 6 -2
v -5 6 -3
v -5 7 1
v -5 7 -0
v -5 7 -1
v -5 7 -2
v -5 8 -0
v -5 8 -1
v -4 0 -0
v -4 0 -1
v -4 1 1
v -4 1 -0
v -4 1 -1
v -4 1 -2
v -4 2 2
v -4 2 1
v -4 2 -0
v -4 2 -1
v -4 2 -2
v -4 2 -3
v -4 3 2
v -4 3 1
v -4 3 -2
v -4 3 -3
v -3 0 1
v -3 0 -0
v -3 0 -1
v -3 0 -2
v -3 1 1
v -3 1 -0
v -3 1 -1
v -3 1 -2
v -2 1 2
v -2 1 1
v -2 1 -2
v -2 1 -3
v -2 2 2
v -2 2 1
v -2 2 -2
v -2 2 -3
v -2 7 1
v -2 7 -2
v -2 10 1
v -2 10 -2
v -1 6 1
v -1 6 -2
v -1 7 2
v -1 7 1
v -1 7 -2
v -1 7 -3
v -1 10 2
v -1 10 1
v -1 10 -0
v -1 10 -1
v -1 10 -2
v -1 10 -3
v -1 11 -0
v -1 11 -1
v 0 5 2
v 0 5 1
v 0 5 -2
v 0 5 -3
v 0 7 2
v 0 7 1
v 0 7 -2
v 0 7 -3
v 0 10 1
v 0 10 -0
v 0 10 -1
v 0 10 -2
v 0 11 1
v 0 11 -0
v 0 11 -1
v 0 11 -2
v -4 5 2
v -4 5 1
v -4 5 -2
v -4 5 -3
v -4 6 2
v -4 6 1
v -4 6 -2
v -4 6 -3
v -4 7 1
v -4 7 -0
v -4 7 -1
v -4 7 -2
v -4 8 -0
v -4 8 -1
v 1 1 2
v 1 1 1
v 1 1 -2
v 1 1 -3
v 1 2 2
v 1 2 1
v 1 2 -2
v 1 2 -3
v 1 5 2
v 1 5 1
v 1 5 -2
v 1 5 -3
v 1 7 2
v 1 7 1
v 1 7 -2
v 1 7 -3
v 1 10 1
v 1 10 -0
v 1 10 -1
v 1 10 -2
v 1 11 1
v 1 11 -0
v 1 11 -1
v 1 11 -2
v 2 0 1
v 2 0 -0
v 2 0 -1
v 2 0 -2
v 2 1 1
v 2 1 -0
v 2 1 -1
v 2 1 -2
v 2 4 2
v 2 4 1
v 2 4 -2
v 2 4 -3
v 2 5 2
v 2 5 1
v 2 5 -2
v 2 5 -3
v 2 6 1
v 2 6 -2
v 2 7 2
v 2 7 1
v 2 7 -2
v 2 7 -3
v 2 8 1
v 2 8 -2
v 2 9 1
v 2 9 -2
v 2 10 2
v 2 10 -0
v 2 10 -1
v 2 10 -3
v 2 11 -0
v 2 11 -1
v 3 0 -0
v 3 0 -1
v 3 1 1
v 3 1 -0
v 3 1 -1
v 3 1 -2
v 3 2 2
v 3 2 1
v 3 2 -0
v 3 2 -1
v 3 2 -2
v 3 2 -3
v 3 3 1
v 3 3 -2
v 3 4 2
v 3 4 1
v 3 4 -2
v 3 4 -3
v 3 5 1
v 3 5 -2
v 3 6 1
v 3 6 -2
v 3 8 1
v 3 8 -2
v 3 9 1
v 3 9 -2
v 4 1 -0
v 4 1 -1
v 4 2 1
v 4 2 -0
v 4 2 -1
v 4 2 -2
v 4 3 1
v 4 3 -2
v 4 5 1
v 4 5 -2
v 4 7 1
v 4 7 -2
v 4 8 1
v 4 8 -2
v -5 3 2
v -5 6 2
v -4 2 2
v -4 3 2
v -4 5 2
v -4 6 2
v -2 1 2
v -2 2 2
v -1 7 2
v -1 10 2
v 0 5 2
v 0 7 2
v 0 8 2
v 0 9 2
v 1 1 2
v 1 2 2
v 1 5 2
v 1 7 2
v 1 8 2
v 1 9 2
v 2 4 2
v 2 5 2
v 2 7 2
v 2 10 2
v 3 2 2
v 3 4 2
v -6 3 1
v -6 4 1
v -6 6 1
v -5 2 1
v -5 3 1
v -5 4 1
v -5 6 1
v -5 7 1
v -4 1 1
v -4 2 1
v -4 3 1
v -4 5 1
v -4 6 1
v -4 7 1
v -3 0 1
v -3 1 1
v -2 1 1
v -2 2 1
v -2 7 1
v -2 10 1
v -1 6 1
v -1 7 1
v -1 10 1
v 0 5 1
v 0 7 1
v 0 10 1
v 0 11 1
v 1 1 1
v 1 2 1
v 1 5 1
v 1 7 1
v 1 10 1
v 1 11 1
v 2 0 1
v 2 1 1
v 2 4 1
v 2 5 1
v 2 6 1
v 2 7 1
v 2 8 1
v 2 9 1
v 3 1 1
v 3 2 1
v 3 3 1
v 3 4 1
v 3 5 1
v 3 6 1
v 3 8 1
v 3 9 1
v 4 2 1
v 4 3 1
v 4 5 1
v 4 7 1
v 4 8 1
v -6 2 -0
v -6 3 -0
v -6 6 -0
v -6 7 -0
v -5 1 -0
v -5 2 -0
v -5 3 -0
v -5 6 -0
v -5 7 -0
v -5 8 -0
v -4 0 -0
v -4 1 -0
v -4 2 -0
v -4 7 -0
v -4 8 -0
v -3 0 -0
v -3 1 -0
v -1 10 -0
v -1 11 -0
v 0 10 -0
v 0 11 -0
v 1 10 -0
v 1 11 -0
v 2 0 -0
v 2 1 -0
v 2 10 -0
v 2 11 -0
v 3 0 -0
v 3 1 -0
v 3 2 -0
v 4 1 -0
v 4 2 -0
v -6 2 -1
v -6 3 -1
v -6 6 -1
v -6 7 -1
v -5 1 -1
v -5 2 -1
v -5 3 -1
v -5 6 -1
v -5 7 -1
v -5 8 -1
v -4 0 -1
v -4 1 -1
v -4 2 -1
v -4 7 -1
v -4 8 -1
v -3 0 -1
v -3 1 -1
v -1 10 -1
v -1 11 -1
v 0 10 -1
v 0 11 -1
v 1 10 -1
v 1 11 -1
v 2 0 -1
v 2 1 -1
v 2 10 -1
v 2 11 -1
v 3 0 -1
v 3 1 -1
v 3 2 -1
v 4 1 -1
v 4 2 -1
v -6 3 -2
v -6 4 -2
v -6 6 -2
v -5 2 -2
v -5 3 -2
v -5 4 -2
v -5 6 -2
v -5 7 -2
v -4 1 -2
v -4 2 -2
v -4 3 -2
v -4 5 -2
v -4 6 -2
v -4 7 -2
v -3 0 -2
v -3 1 -2
v -2 1 -2
v -2 2 -2
v -2 7 -2
v -2 10 -2
v -1 6 -2
v -1 7 -2
v -1 10 -2
v 0 5 -2
v 0 7 -2
v 0 10 -2
v 0 11 -2
v 1 1 -2
v 1 2 -2
v 1 5 -2
v 1 7 -2
v 1 10 -2
v 1 11 -2
v 2 0 -2
v 2 1 -2
v 2 4 -2
v 2 5 -2
v 2 6 -2
v 2 7 -2
v 2 8 -2
v 2 9 -2
v 3 1 -2
v 3 2 -2
v 3 3 -2
v 3 4 -2
v 3 5 -2
v 3 6 -2
v 3 8 -2
v 3 9 -2
v 4 2 -2
v 4 3 -2
v 4 5 -2
v 4 7 -2
v 4 8 -2
v -5 3 -3
v -5 6 -3
v -4 2 -3
v -4 3 -3
v -4 5 -3
v -4 6 -3
v -2 1 -3
v -2 2 -3
v -1 7 -3
v -1 10 -3
v 0 5 -3
v 0 7 -3
v 0 8 -3
v 0 9 -3
v 1 1 -3
v 1 2 -3
v 1 5 -3
v 1 7 -3
v 1 8 -3
v 1 9 -3
v 2 4 -3
v 2 5 -3
v 2 7 -3
v 2 10 -3
v 3 2 -3
v 3 4 -3
v -3 0 1
v 2 0 1
v -4 0 -0
v -3 0 -0
v 2 0 -0
v 3 0 -0
v -4 0 -1
v -3 0 -1
v 2 0 -1
v 3 0 -1
v -3 0 -2
v 2 0 -2
v -2 1 2
v 1 1 2
v -4 1 1
v -3 1 1
v -2 1 1
v 1 1 1
v 2 1 1
v 3 1 1
v -5 1 -0
v -4 1 -0
v -3 1 -0
v 2 1 -0
v 3 1 -0
v 4 1 -0
v -5 1 -1
v -4 1 -1
v -3 1 -1
v 2 1 -1
v 3 1 -1
v 4 1 -1
v -4 1 -2
v -3 1 -2
v -2 1 -2
v 1 1 -2
v 2 1 -2
v 3 1 -2
v -2 1 -3
v 1 1 -3
v -4 2 2
v -2 2 2
v 1 2 2
v 3 2 2
v -5 2 1
v -4 2 1
v -2 2 1
v 1 2 1
v 3 2 1
v 4 2 1
v -6 2 -0
v -5 2 -0
v -4 2 -0
v 3 2 -0
v 4 2 -0
v -6 2 -1
v -5 2 -1
v -4 2 -1
v 3 2 -1
v 4 2 -1
v -5 2 -2
v -4 2 -2
v -2 2 -2
v 1 2 -2
v 3 2 -2
v 4 2 -2
v -4 2 -3
v -2 2 -3
v 1 2 -3
v 3 2 -3
v -5 3 2
v -4 3 2
v -6 3 1
v -5 3 1
v -4 3 1
v -6 3 -0
v -5 3 -0
v -6 3 -1
v -5 3 -1
v -6 3 -2
v -5 3 -2
v -4 3 -2
v -5 3 -3
v -4 3 -3
v -1 7 2
v 0 7 2
v 1 7 2
v 2 7 2
v -2 7 1
v -1 7 1
v 0 7 1
v 1 7 1
v 2 7 1
v 4 7 1
v -2 7 -2
v -1 7 -2
v 0 7 -2
v 1 7 -2
v 2 7 -2
v 4 7 -2
v -1 7 -3
v 0 7 -3
v 1 7 -3
v 2 7 -3
v 2 4 2
v 3 4 2
v 2 4 1
v 3 4 1
v 2 4 -2
v 3 4 -2
v 2 4 -3
v 3 4 -3
v -4 5 2
v 0 5 2
v 1 5 2
v 2 5 2
v -4 5 1
v 0 5 1
v 1 5 1
v 2 5 1
v 3 5 1
v 4 5 1
v -4 5 -2
v 0 5 -2
v 1 5 -2
v 2 5 -2
v 3 5 -2
v 4 5 -2
v -4 5 -3
v 0 5 -3
v 1 5 -3
v 2 5 -3
v -5 6 2
v -4 6 2
v -6 6 1
v -5 6 1
v -4 6 1
v -1 6 1
v 2 6 1
v 3 6 1
v -6 6 -0
v -5 6 -0
v -6 6 -1
v -5 6 -1
v -6 6 -2
v -5 6 -2
v -4 6 -2
v -1 6 -2
v 2 6 -2
v 3 6 -2
v -5 6 -3
v -4 6 -3
v -5 7 1
v -4 7 1
v -6 7 -0
v -5 7 -0
v -4 7 -0
v -6 7 -1
v -5 7 -1
v -4 7 -1
v -5 7 -2
v -4 7 -2
v 3 8 1
v 4 8 1
v -5 8 -0
v -4 8 -0
v -5 8 -1
v -4 8 -1
v 3 8 -2
v 4 8 -2
v 2 9 1
v 3 9 1
v 2 9 -2
v 3 9 -2
v -1 10 2
v 2 10 2
v -2 10 1
v -1 10 1
v 0 10 1
v 1 10 1
v -1 10 -0
v 0 10 -0
v 1 10 -0
v 2 10 -0
v -1 10 -1
v 0 10 -1
v 1 10 -1
v 2 10 -1
v -2 10 -2
v -1 10 -2
v 0 10 -2
v 1 10 -2
v -1 10 -3
v 2 10 -3
v 0 11 1
v 1 11 1
v -1 11 -0
v 0 11 -0
v 1 11 -0
v 2 11 -0
v -1 11 -1
v 0 11 -1
v 1 11 -1
v 2 11 -1
v 0 11 -2
v 1 11 -2

# faces
f 4/1/1 2/1/1 1/1/1
f 5/1/1 2/1/1 4/1/1
f 7/1/1 4/1/1 3/1/1
f 7/1/1 6/1/1 5/1/1
f 7/1/1 5/1/1 4/1/1
f 8/1/1 6/1/1 7/1/1
f 9/2/1 8/2/1 7/2/1
f 10/2/1 8/2/1 9/2/1
f 11/2/1 8/2/1 10/2/1
f 12/2/1 8/2/1 11/2/1
f 13/2/1 11/2/1 10/2/1
f 14/2/1 11/2/1 13/2/1
f 18/1/1 16/1/1 15/1/1
f 19/1/1 16/1/1 18/1/1
f 22/1/1 18/1/1 17/1/1
f 23/1/1 18/1/1 22/1/1
f 24/1/1 20/1/1 19/1/1
f 25/1/1 20/1/1 24/1/1
f 27/2/1 22/2/1 21/2/1
f 28/2/1 26/2/1 25/2/1
f 29/2/1 27/2/1 21/2/1
f 30/2/1 27/2/1 29/2/1
f 33/2/1 26/2/1 28/2/1
f 34/2/1 26/2/1 33/2/1
f 35/2/1 31/2/1 30/2/1
f 36/2/1 31/2/1 35/2/1
f 37/2/1 33/2/1 32/2/1
f 38/2/1 33/2/1 37/2/1
f 39/2/1 37/2/1 36/2/1
f 40/2/1 37/2/1 39/2/1
f 44/1/1 42/1/1 41/1/1
f 45/1/1 42/1/1 44/1/1
f 48/1/1 44/1/1 43/1/1
f 49/1/1 44/1/1 48/1/1
f 50/1/1 46/1/1 45/1/1
f 51/1/1 46/1/1 50/1/1
f 53/2/1 48/2/1 47/2/1
f 54/2/1 48/2/1 53/2/1
f 55/2/1 52/2/1 51/2/1
f 56/2/1 52/2/1 55/2/1
f 61/1/1 58/1/1 57/1/1
f 62/1/1 58/1/1 61/1/1
f 63/1/1 60/1/1 59/1/1
f 64/1/1 60/1/1 63/1/1
f 69/2/1 66/2/1 65/2/1
f 70/2/1 66/2/1 69/2/1
f 71/2/1 68/2/1 67/2/1
f 72/2/1 68/2/1 71/2/1
f 75/2/1 74/2/1 73/2/1
f 76/2/1 74/2/1 75/2/1
f 80/2/1 78/2/1 77/2/1
f 81/2/1 78/2/1 80/2/1
f 83/2/1 80/2/1 79/2/1
f 84/2/1 80/2/1 83/2/1
f 87/2/1 82/2/1 81/2/1
f 88/2/1 82/2/1 87/2/1
f 89/2/1 86/2/1 85/2/1
f 90/2/1 86/2/1 89/2/1
f 95/2/1 92/2/1 91/2/1
f 96/2/1 92/2/1 95/2/1
f 97/2/1 94/2/1 93/2/1
f 98/2/1 94/2/1 97/2/1
f 103/2/1 100/2/1 99/2/1
f 104/2/1 100/2/1 103/2/1
f 105/2/1 102/2/1 101/2/1
f 106/2/1 102/2/1 105/2/1
f 107/2/2 108/2/2 111/2/2
f 111/2/2 108/2/2 112/2/2
f 109/2/2 110/2/2 113/2/2
f 113/2/2 110/2/2 114/2/2
f 112/2/2 113/2/2 115/2/2
f 115/2/2 113/2/2 116/2/2
f 116/2/2 113/2/2 117/2/2
f 117/2/2 113/2/2 118/2/2
f 116/2/2 117/2/2 119/2/2
f 119/2/2 117/2/2 120/2/2
f 121/2/2 122/2/2 125/2/2
f 125/2/2 122/2/2 126/2/2
f 123/2/2 124/2/2 127/2/2
f 127/2/2 124/2/2 128/2/2
f 129/2/2 130/2/2 133/2/2
f 133/2/2 130/2/2 134/2/2
f 131/2/2 132/2/2 135/2/2
f 135/2/2 132/2/2 136/2/2
f 137/2/2 138/2/2 141/2/2
f 141/2/2 138/2/2 142/2/2
f 139/2/2 140/2/2 143/2/2
f 143/2/2 140/2/2 144/2/2
f 145/1/2 146/1/2 149/1/2
f 149/1/2 146/1/2 150/1/2
f 147/1/2 148/1/2 151/1/2
f 151/1/2 148/1/2 152/1/2
f 153/2/2 154/2/2 157/2/2
f 157/2/2 154/2/2 158/2/2
f 155/2/2 156/2/2 159/2/2
f 159/2/2 156/2/2 160/2/2
f 161/2/2 162/2/2 164/2/2
f 164/2/2 162/2/2 165/2/2
f 163/2/2 164/2/2 167/2/2
f 165/2/2 166/2/2 168/2/2
f 163/2/2 167/2/2 169/2/2
f 168/2/2 166/2/2 170/2/2
f 163/2/2 169/2/2 171/2/2
f 169/2/2 170/2/2 171/2/2
f 171/2/2 170/2/2 172/2/2
f 172/2/2 170/2/2 173/2/2
f 170/2/2 166/2/2 174/2/2
f 173/2/2 170/2/2 174/2/2
f 172/2/2 173/2/2 175/2/2
f 175/2/2 173/2/2 176/2/2
f 177/1/2 178/1/2 180/1/2
f 180/1/2 178/1/2 181/1/2
f 179/1/2 180/1/2 184/1/2
f 184/1/2 180/1/2 185/1/2
f 181/1/2 182/1/2 186/1/2
f 186/1/2 182/1/2 187/1/2
f 183/2/2 184/2/2 189/2/2
f 187/2/2 188/2/2 190/2/2
f 183/2/2 189/2/2 191/2/2
f 191/2/2 189/2/2 192/2/2
f 190/2/2 188/2/2 193/2/2
f 193/2/2 188/2/2 194/2/2
f 195/2/2 196/2/2 197/2/2
f 197/2/2 196/2/2 198/2/2
f 199/2/2 200/2/2 201/2/2
f 201/2/2 200/2/2 202/2/2
f 203/1/2 204/1/2 206/1/2
f 206/1/2 204/1/2 207/1/2
f 205/1/2 206/1/2 209/1/2
f 207/1/2 208/1/2 209/1/2
f 206/1/2 207/1/2 209/1/2
f 209/1/2 208/1/2 210/1/2
f 209/2/2 210/2/2 211/2/2
f 211/2/2 210/2/2 212/2/2
f 213/3/2 214/3/2 215/3/2
f 215/3/2 214/3/2 216/3/2
f 220/2/3 218/2/3 217/2/3
f 221/2/3 218/2/3 220/2/3
f 222/2/3 218/2/3 221/2/3
f 224/2/3 220/2/3 219/2/3
f 224/2/3 221/2/3 220/2/3
f 227/2/3 224/2/3 223/2/3
f 227/2/3 221/2/3 224/2/3
f 228/2/3 226/2/3 225/2/3
f 229/2/3 226/2/3 228/2/3
f 230/2/3 226/2/3 229/2/3
f 231/2/3 227/2/3 223/2/3
f 231/2/3 228/2/3 227/2/3
f 231/2/3 229/2/3 228/2/3
f 232/2/3 229/2/3 231/2/3
f 233/2/3 229/2/3 232/2/3
f 234/2/3 229/2/3 233/2/3
f 235/4/3 230/4/3 229/4/3
f 235/2/3 229/2/3 234/2/3
f 236/2/3 226/2/3 230/2/3
f 236/4/3 230/4/3 235/4/3
f 237/2/3 233/2/3 232/2/3
f 238/2/3 233/2/3 237/2/3
f 239/2/3 235/2/3 234/2/3
f 239/2/3 236/2/3 235/2/3
f 240/2/3 226/2/3 236/2/3
f 240/2/3 236/2/3 239/2/3
f 241/2/3 237/2/3 232/2/3
f 242/2/3 237/2/3 241/2/3
f 247/1/3 244/1/3 243/1/3
f 248/2/3 245/2/3 244/2/3
f 248/1/3 244/1/3 247/1/3
f 249/2/3 245/2/3 248/2/3
f 252/1/3 247/1/3 246/1/3
f 253/1/3 247/1/3 252/1/3
f 255/2/3 250/2/3 249/2/3
f 256/2/3 250/2/3 255/2/3
f 258/1/3 252/1/3 251/1/3
f 259/1/3 252/1/3 258/1/3
f 259/1/3 258/1/3 257/1/3
f 260/1/3 252/1/3 259/1/3
f 263/2/3 255/2/3 254/2/3
f 264/2/3 262/2/3 261/2/3
f 265/2/3 262/2/3 264/2/3
f 266/2/3 263/2/3 254/2/3
f 266/2/3 264/2/3 263/2/3
f 267/2/3 264/2/3 266/2/3
f 270/1/3 259/1/3 257/1/3
f 274/2/3 269/2/3 268/2/3
f 275/2/3 269/2/3 274/2/3
f 276/1/3 270/1/3 257/1/3
f 276/1/3 271/1/3 270/1/3
f 277/1/3 271/1/3 276/1/3
f 279/2/3 273/2/3 272/2/3
f 280/2/3 273/2/3 279/2/3
f 281/2/3 273/2/3 280/2/3
f 284/1/3 271/1/3 277/1/3
f 285/1/3 271/1/3 284/1/3
f 287/2/3 279/2/3 278/2/3
f 287/2/3 280/2/3 279/2/3
f 288/2/3 280/2/3 287/2/3
f 289/2/3 280/2/3 288/2/3
f 290/2/3 283/2/3 282/2/3
f 290/3/3 282/3/3 281/3/3
f 291/2/3 283/2/3 290/2/3
f 292/1/3 286/1/3 285/1/3
f 293/2/3 288/2/3 287/2/3
f 293/1/3 286/1/3 292/1/3
f 293/2/3 287/2/3 286/2/3
f 294/2/3 288/2/3 293/2/3
f 295/3/3 290/3/3 281/3/3
f 296/3/3 290/3/3 295/3/3
f 302/1/3 298/1/3 297/1/3
f 303/1/3 298/1/3 302/1/3
f 304/2/3 300/2/3 299/2/3
f 305/2/3 300/2/3 304/2/3
f 308/1/3 302/1/3 301/1/3
f 309/1/3 302/1/3 308/1/3
f 310/2/3 306/2/3 305/2/3
f 311/2/3 306/2/3 310/2/3
f 312/1/3 308/1/3 307/1/3
f 313/1/3 308/1/3 312/1/3
f 316/2/3 315/2/3 314/2/3
f 317/2/3 315/2/3 316/2/3
f 322/2/3 319/2/3 318/2/3
f 323/2/3 319/2/3 322/2/3
f 324/1/3 321/1/3 320/1/3
f 325/1/3 321/1/3 324/1/3
f 327/1/3 326/1/3 325/1/3
f 328/1/3 326/1/3 327/1/3
f 329/1/4 330/1/4 334/1/4
f 334/1/4 330/1/4 335/1/4
f 331/2/4 332/2/4 336/2/4
f 336/2/4 332/2/4 337/2/4
f 333/1/4 334/1/4 340/1/4
f 340/1/4 334/1/4 341/1/4
f 337/2/4 338/2/4 342/2/4
f 342/2/4 338/2/4 343/2/4
f 339/1/4 340/1/4 344/1/4
f 344/1/4 340/1/4 345/1/4
f 346/2/4 347/2/4 348/2/4
f 348/2/4 347/2/4 349/2/4
f 350/2/4 351/2/4 354/2/4
f 354/2/4 351/2/4 355/2/4
f 352/1/4 353/1/4 356/1/4
f 356/1/4 353/1/4 357/1/4
f 357/1/4 358/1/4 359/1/4
f 359/1/4 358/1/4 360/1/4
f 361/1/4 362/1/4 365/1/4
f 362/2/4 363/2/4 366/2/4
f 365/1/4 362/1/4 366/1/4
f 366/2/4 363/2/4 367/2/4
f 364/1/4 365/1/4 370/1/4
f 370/1/4 365/1/4 371/1/4
f 367/2/4 368/2/4 373/2/4
f 373/2/4 368/2/4 374/2/4
f 369/1/4 370/1/4 376/1/4
f 376/1/4 370/1/4 377/1/4
f 375/1/4 376/1/4 377/1/4
f 377/1/4 370/1/4 378/1/4
f 372/2/4 373/2/4 381/2/4
f 379/2/4 380/2/4 382/2/4
f 382/2/4 380/2/4 383/2/4
f 372/2/4 381/2/4 384/2/4
f 381/2/4 382/2/4 384/2/4
f 384/2/4 382/2/4 385/2/4
f 375/1/4 377/1/4 388/1/4
f 386/2/4 387/2/4 392/2/4
f 392/2/4 387/2/4 393/2/4
f 375/1/4 388/1/4 394/1/4
f 388/1/4 389/1/4 394/1/4
f 394/1/4 389/1/4 395/1/4
f 390/2/4 391/2/4 397/2/4
f 397/2/4 391/2/4 398/2/4
f 398/2/4 391/2/4 399/2/4
f 395/1/4 389/1/4 402/1/4
f 402/1/4 389/1/4 403/1/4
f 396/2/4 397/2/4 405/2/4
f 397/2/4 398/2/4 405/2/4
f 405/2/4 398/2/4 406/2/4
f 406/2/4 398/2/4 407/2/4
f 400/2/4 401/2/4 408/2/4
f 399/3/4 400/3/4 408/3/4
f 408/2/4 401/2/4 409/2/4
f 403/1/4 404/1/4 410/1/4
f 405/2/4 406/2/4 411/2/4
f 410/1/4 404/1/4 411/1/4
f 404/2/4 405/2/4 411/2/4
f 411/2/4 406/2/4 412/2/4
f 399/3/4 408/3/4 413/3/4
f 413/3/4 408/3/4 414/3/4
f 415/2/4 416/2/4 418/2/4
f 418/2/4 416/2/4 419/2/4
f 419/2/4 416/2/4 420/2/4
f 417/2/4 418/2/4 422/2/4
f 418/2/4 419/2/4 422/2/4
f 421/2/4 422/2/4 425/2/4
f 422/2/4 419/2/4 425/2/4
f 423/2/4 424/2/4 426/2/4
f 426/2/4 424/2/4 427/2/4
f 427/2/4 424/2/4 428/2/4
f 421/2/4 425/2/4 429/2/4
f 425/2/4 426/2/4 429/2/4
f 426/2/4 427/2/4 429/2/4
f 429/2/4 427/2/4 430/2/4
f 430/2/4 427/2/4 431/2/4
f 431/2/4 427/2/4 432/2/4
f 427/4/4 428/4/4 433/4/4
f 432/2/4 427/2/4 433/2/4
f 428/2/4 424/2/4 434/2/4
f 433/4/4 428/4/4 434/4/4
f 430/2/4 431/2/4 435/2/4
f 435/2/4 431/2/4 436/2/4
f 432/2/4 433/2/4 437/2/4
f 433/2/4 434/2/4 437/2/4
f 434/2/4 424/2/4 438/2/4
f 437/2/4 434/2/4 438/2/4
f 430/2/4 435/2/4 439/2/4
f 439/2/4 435/2/4 440/2/4
f 444/1/5 442/1/5 441/1/5
f 445/1/5 442/1/5 444/1/5
f 447/1/5 444/1/5 443/1/5
f 447/1/5 446/1/5 445/1/5
f 447/1/5 445/1/5 444/1/5
f 448/1/5 446/1/5 447/1/5
f 449/1/5 446/1/5 448/1/5
f 450/1/5 446/1/5 449/1/5
f 451/1/5 449/1/5 448/1/5
f 452/1/5 449/1/5 451/1/5
f 457/2/5 454/2/5 453/2/5
f 458/2/5 454/2/5 457/2/5
f 462/1/5 456/1/5 455/1/5
f 463/1/5 456/1/5 462/1/5
f 464/1/5 460/1/5 459/1/5
f 465/1/5 460/1/5 464/1/5
f 467/1/5 462/1/5 461/1/5
f 468/1/5 462/1/5 467/1/5
f 471/1/5 466/1/5 465/1/5
f 472/1/5 466/1/5 471/1/5
f 473/1/5 469/1/5 468/1/5
f 474/1/5 469/1/5 473/1/5
f 477/1/5 471/1/5 470/1/5
f 478/1/5 471/1/5 477/1/5
f 479/2/5 476/2/5 475/2/5
f 480/2/5 476/2/5 479/2/5
f 486/2/5 482/2/5 481/2/5
f 487/2/5 482/2/5 486/2/5
f 488/2/5 484/2/5 483/2/5
f 489/2/5 484/2/5 488/2/5
f 492/1/5 486/1/5 485/1/5
f 493/1/5 486/1/5 492/1/5
f 494/1/5 490/1/5 489/1/5
f 495/1/5 490/1/5 494/1/5
f 496/1/5 492/1/5 491/1/5
f 497/1/5 492/1/5 496/1/5
f 501/1/5 498/1/5 497/1/5
f 502/1/5 498/1/5 501/1/5
f 505/1/5 500/1/5 499/1/5
f 506/1/5 500/1/5 505/1/5
f 507/2/5 503/2/5 502/2/5
f 508/2/5 503/2/5 507/2/5
f 509/2/5 505/2/5 504/2/5
f 510/2/5 505/2/5 509/2/5
f 514/2/5 512/2/5 511/2/5
f 515/2/5 512/2/5 514/2/5
f 516/1/5 514/1/5 513/1/5
f 517/1/5 514/1/5 516/1/5
f 520/1/5 519/1/5 518/1/5
f 521/1/5 519/1/5 520/1/5
f 523/2/5 522/2/5 521/2/5
f 524/2/5 522/2/5 523/2/5
f 530/2/5 526/2/5 525/2/5
f 531/2/5 526/2/5 530/2/5
f 532/2/5 528/2/5 527/2/5
f 533/2/5 528/2/5 532/2/5
f 535/2/5 530/2/5 529/2/5
f 536/2/5 530/2/5 535/2/5
f 539/3/5 534/3/5 533/3/5
f 540/3/5 534/3/5 539/3/5
f 541/2/5 537/2/5 536/2/5
f 542/2/5 537/2/5 541/2/5
f 543/2/5 539/2/5 538/2/5
f 544/2/5 539/2/5 543/2/5
f 545/2/6 546/2/6 547/2/6
f 547/2/6 546/2/6 548/2/6
f 549/2/6 550/2/6 551/2/6
f 551/2/6 550/2/6 552/2/6
f 553/2/6 554/2/6 557/2/6
f 557/2/6 554/2/6 558/2/6
f 555/2/6 556/2/6 559/2/6
f 559/2/6 556/2/6 560/2/6
f 561/2/6 562/2/6 567/2/6
f 567/2/6 562/2/6 568/2/6
f 563/2/6 564/2/6 569/2/6
f 569/2/6 564/2/6 570/2/6
f 565/2/6 566/2/6 571/2/6
f 571/2/6 566/2/6 572/2/6
f 573/2/6 574/2/6 576/2/6
f 576/2/6 574/2/6 577/2/6
f 575/2/6 576/2/6 581/2/6
f 581/2/6 576/2/6 582/2/6
f 583/2/6 584/2/6 585/2/6
f 585/2/6 584/2/6 586/2/6
f 577/2/6 578/2/6 587/2/6
f 587/2/6 578/2/6 588/2/6
f 579/2/6 580/2/6 589/2/6
f 589/2/6 580/2/6 590/2/6
f 586/2/6 587/2/6 591/2/6
f 591/2/6 587/2/6 592/2/6
f 593/2/6 594/2/6 596/2/6
f 596/2/6 594/2/6 597/2/6
f 595/2/6 596/2/6 598/2/6
f 598/2/6 596/2/6 599/2/6
f 599/2/6 600/2/6 601/2/6
f 601/2/6 600/2/6 602/2/6
f 605/2/6 606/2/6 607/2/6
f 607/2/6 606/2/6 608/2/6
f 603/3/6 604/3/6 609/3/6
f 609/3/6 604/3/6 610/3/6
f 611/2/6 612/2/6 613/2/6
f 613/2/6 612/2/6 614/2/6
f 615/2/6 616/2/6 618/2/6
f 618/2/6 616/2/6 619/2/6
f 619/2/6 616/2/6 620/2/6
f 617/2/6 618/2/6 621/2/6
f 618/2/6 619/2/6 621/2/6
f 621/2/6 619/2/6 622/2/6
f 620/2/6 616/2/6 623/2/6
f 623/2/6 616/2/6 624/2/6
f 617/2/6 621/2/6 625/2/6
f 617/2/6 625/2/6 629/2/6
f 625/2/6 626/2/6 629/2/6
f 629/2/6 626/2/6 630/2/6
f 630/2/6 626/2/6 631/2/6
f 627/2/6 628/2/6 632/2/6
f 630/2/6 631/2/6 633/2/6
f 631/2/6 632/2/6 633/2/6
f 632/2/6 628/2/6 634/2/6
f 633/2/6 632/2/6 634/2/6
f 635/2/6 636/2/6 638/2/6
f 638/2/6 636/2/6 639/2/6
f 637/2/6 638/2/6 641/2/6
f 639/2/6 640/2/6 641/2/6
f 638/2/6 639/2/6 641/2/6
f 641/2/6 640/2/6 642/2/6
f 642/2/6 640/2/6 643/2/6
f 643/2/6 640/2/6 644/2/6
f 642/2/6 643/2/6 645/2/6
f 645/2/6 643/2/6 646/2/6
